#N canvas 176 151 352 390 10;
#X obj 22 -111 f;
#X obj 22 -62 i;
#X obj 22 -37 limit 0 4095 0;
#X obj 53 -111 + 1;
#X obj 22 -87 tabread led_seq-\$1;
#X obj 22 39 pack float float;
#X obj 115 15 & 63;
#X obj 22 -11 trigger float float;
#X obj 22 15 >> 6;
#X obj 22 -159 until;
#X msg 85 -181 0;
#X obj 22 -203 t bang bang;
#X obj 22 89 s OUT;
#X obj 22 -253 r a-\$1;
#X msg 22 -181 16;
#X obj 79 89 s OUT_SAVE;
#X connect 0 0 3 0;
#X connect 0 0 4 0;
#X connect 1 0 2 0;
#X connect 2 0 7 0;
#X connect 2 0 15 0;
#X connect 3 0 0 1;
#X connect 4 0 1 0;
#X connect 5 0 12 0;
#X connect 6 0 5 1;
#X connect 7 0 8 0;
#X connect 7 1 6 0;
#X connect 8 0 5 0;
#X connect 9 0 0 0;
#X connect 10 0 0 1;
#X connect 11 0 14 0;
#X connect 11 1 10 0;
#X connect 13 0 11 0;
#X connect 14 0 9 0;
#X coords 0 390 1 389 300 80 0;
