#N canvas 51 22 1075 637 10;
#X msg 40 -71 close;
#X msg 53 -49 devices;
#X obj 66 -27 r OUT;
#N canvas 0 22 450 278 (subpatch) 0;
#X array led_seq-0 16 float 3;
#A 0 0 0 0 0 0 0 0 0 0 0 0 0 0 0 0 0;
#X coords 0 4095 16 0 250 50 1 0 0;
#X restore 133 -93 graph;
#N canvas 0 22 450 278 (subpatch) 0;
#X array led_seq-1 16 float 3;
#A 0 0 0 0 0 0 0 0 0 0 0 0 0 0 0 0 0;
#X coords 0 4095 16 0 250 50 1 0 0;
#X restore 133 -17 graph;
#N canvas 0 22 450 278 (subpatch) 0;
#X array led_seq-2 16 float 3;
#A 0 4095 4095 4095 4095 4095 4095 4095 4095 4095 4095 4095 4095 4095
4095 4095 4095;
#X coords 0 4095 16 0 250 50 1 0 0;
#X restore 133 59 graph;
#N canvas 0 22 450 278 (subpatch) 0;
#X array led_seq-3 16 float 3;
#A 0 0 0 0 0 0 0 0 0 0 0 0 0 0 0 0 0;
#X coords 0 4095 16 0 250 50 1 0 0;
#X restore 133 135 graph;
#N canvas 0 22 450 278 (subpatch) 0;
#X array led_seq-4 16 float 3;
#A 0 0 0 0 0 0 0 0 0 0 0 0 0 0 0 0 0;
#X coords 0 4095 16 0 250 50 1 0 0;
#X restore 133 211 graph;
#N canvas 0 22 450 278 (subpatch) 0;
#X array led_seq-5 16 float 3;
#A 0 0 0 0 0 0 0 0 0 0 0 0 0 0 0 0 0;
#X coords 0 4095 16 0 250 50 1 0 0;
#X restore 133 287 graph;
#N canvas 0 22 450 278 (subpatch) 0;
#X array led_seq-6 16 float 3;
#A 0 0 0 0 0 0 0 0 0 0 0 0 0 0 0 0 0;
#X coords 0 4095 16 0 250 50 1 0 0;
#X restore 133 363 graph;
#N canvas 0 22 450 278 (subpatch) 0;
#X array led_seq-7 16 float 3;
#A 0 0 0 0 0 0 0 0 0 0 0 0 0 0 0 0 0;
#X coords 0 4095 16 0 250 50 1 0 0;
#X restore 133 439 graph;
#N canvas 0 22 450 278 (subpatch) 0;
#X array led_seq-8 16 float 3;
#A 0 0 0 0 0 0 0 0 0 0 0 0 0 0 0 0 0;
#X coords 0 4095 16 0 250 50 1 0 0;
#X restore 388 -93 graph;
#N canvas 0 22 450 278 (subpatch) 0;
#X array led_seq-9 16 float 3;
#A 0 0 0 0 0 0 0 0 0 0 0 0 0 0 0 0 0;
#X coords 0 4095 16 0 250 50 1 0 0;
#X restore 388 -17 graph;
#N canvas 0 22 450 278 (subpatch) 0;
#X array led_seq-10 16 float 3;
#A 0 0 0 0 0 0 0 0 0 0 0 0 0 0 0 0 0;
#X coords 0 4095 16 0 250 50 1 0 0;
#X restore 388 59 graph;
#N canvas 0 22 450 278 (subpatch) 0;
#X array led_seq-11 16 float 3;
#A 0 0 0 0 0 0 0 0 0 0 0 0 0 0 0 0 0;
#X coords 0 4095 16 0 250 50 1 0 0;
#X restore 388 135 graph;
#N canvas 0 22 450 278 (subpatch) 0;
#X array led_seq-12 16 float 3;
#A 0 0 0 0 0 0 0 0 0 0 0 0 0 0 0 0 0;
#X coords 0 4095 16 0 250 50 1 0 0;
#X restore 388 211 graph;
#N canvas 0 22 450 278 (subpatch) 0;
#X array led_seq-13 16 float 3;
#A 0 0 0 0 0 0 0 0 0 0 0 0 0 0 0 0 0;
#X coords 0 4095 16 0 250 50 1 0 0;
#X restore 388 287 graph;
#N canvas 0 22 450 278 (subpatch) 0;
#X array led_seq-14 16 float 3;
#A 0 0 0 0 0 0 0 0 0 0 0 0 0 0 0 0 0;
#X coords 0 4095 16 0 250 50 1 0 0;
#X restore 388 363 graph;
#N canvas 0 22 450 278 (subpatch) 0;
#X array led_seq-15 16 float 3;
#A 0 0 0 0 0 0 0 0 0 0 0 0 0 0 0 0 0;
#X coords 0 4095 16 0 250 50 1 0 0;
#X restore 388 439 graph;
#X obj 672 173 until;
#X obj 672 203 f;
#X obj 702 203 + 1;
#X msg 735 151 0;
#X obj 672 109 bng 15 250 50 0 empty empty empty 17 7 0 10 -258113
-1 -1;
#X obj 672 129 t bang bang;
#X obj 674 286 bng 15 250 50 0 empty empty empty 17 7 0 10 -258113
-1 -1;
#X text 694 284 <- envoi de 1024 octets pour un tableau;
#X msg 672 151 16;
#X msg 672 226 \; led_seq-\$1 0 4095 0 4095 0 4095 0 4095 0 4095 0
4095 0 4095 0 4095 0;
#X obj 672 -49 until;
#X obj 672 -19 f;
#X obj 702 -19 + 1;
#X msg 735 -71 0;
#X obj 672 -113 bng 15 250 50 0 empty empty empty 17 7 0 10 -258113
-1 -1;
#X obj 672 -93 t bang bang;
#X msg 672 -71 16;
#X msg 672 3 \; led_seq-\$1 0 0 0 0 0 0 0 0 0 0 0 0 0 0 0 0 0;
#X obj 325 -113 led_seq 0;
#X obj 21 99 print INPUT;
#X obj 574 419 led_seq 15;
#X obj 325 115 led_seq 3;
#X obj 325 39 led_seq 2;
#X obj 580 -113 led_seq 8;
#X obj 580 -37 led_seq 9;
#X obj 574 39 led_seq 10;
#X obj 574 115 led_seq 11;
#X obj 574 191 led_seq 12;
#X obj 574 267 led_seq 13;
#X obj 574 343 led_seq 14;
#X obj 325 -37 led_seq 1;
#X obj 325 191 led_seq 4;
#X obj 325 267 led_seq 5;
#X obj 325 343 led_seq 6;
#X obj 325 419 led_seq 7;
#X obj 678 335 hsl 128 15 0 4095 0 0 empty empty empty -2 -8 0 10 -258113
-1 -1 0 1;
#X obj 72 6 print;
#X floatatom 675 355 5 0 0 0 - - -;
#X text 814 334 BPM;
#X msg 672 47 \; led_seq-2 0 4095 4095 4095 4095 4095 4095 4095 4095
4095 4095 4095 4095 4095 4095 4095 4095;
#N canvas 399 22 442 418 beat_detection 0;
#X floatatom -8 371 8 0 0 0 - - -;
#X floatatom 11 345 5 0 0 0 - - -;
#X text 56 373 beats per minute;
#X obj 31 314 bng 20 250 50 0 empty empty empty 0 -6 0 8 -262144 -258699
-1;
#X text 58 315 'on beat';
#X text 56 347 milliseconds;
#X obj -8 283 beat 4;
#X obj -8 246 makenote 60 60;
#X msg -8 220 60;
#X obj -34 132 readsf~;
#X msg -34 94 open \$1;
#X msg -34 28 bang;
#X obj -34 59 openpanel;
#X obj -35 163 fiddle~ 1024 1 20 3;
#X text 54 28 fiddle~ outputs a bang whenever it thinks a new note
arrived \, just use this bang to create a faked midi note using makenote
and feed this data into beat...;
#X msg 35 94 1;
#X msg 74 94 0;
#X msg -56 220 reset;
#X obj 4 192 print;
#X obj 108 94 adc~;
#X obj 108 117 *~ 2;
#X connect 6 0 0 0;
#X connect 6 1 1 0;
#X connect 6 2 3 0;
#X connect 7 0 6 0;
#X connect 7 1 6 1;
#X connect 8 0 7 0;
#X connect 9 0 13 0;
#X connect 10 0 9 0;
#X connect 11 0 12 0;
#X connect 12 0 10 0;
#X connect 13 1 8 0;
#X connect 13 1 18 0;
#X connect 15 0 9 0;
#X connect 16 0 9 0;
#X connect 17 0 6 0;
#X connect 19 0 20 0;
#X connect 20 0 13 0;
#X restore 676 404 pd beat_detection;
#X msg 21 -93 open 4;
#X obj 21 77 comport 4 38400;
#N canvas 606 275 286 233 send_datas 0;
#X obj -13 16 inlet;
#X obj 194 66 s a-0;
#X obj 181 87 s a-1;
#X obj 168 108 s a-2;
#X obj 155 129 s a-3;
#X obj 142 66 s a-4;
#X obj 129 87 s a-5;
#X obj 116 108 s a-6;
#X obj 103 129 s a-7;
#X obj 90 66 s a-8;
#X obj 77 87 s a-9;
#X obj 64 108 s a-10;
#X obj 51 129 s a-11;
#X obj 38 66 s a-12;
#X obj 25 87 s a-13;
#X obj 12 108 s a-14;
#X obj -1 129 s a-15;
#X obj -13 41 t b b b b b b b b b b b b b b b b b;
#X obj -13 153 255;
#X obj -13 175 s OUT;
#X connect 0 0 17 0;
#X connect 17 0 18 0;
#X connect 17 1 16 0;
#X connect 17 2 15 0;
#X connect 17 3 14 0;
#X connect 17 4 13 0;
#X connect 17 5 12 0;
#X connect 17 6 11 0;
#X connect 17 7 10 0;
#X connect 17 8 9 0;
#X connect 17 9 8 0;
#X connect 17 10 7 0;
#X connect 17 11 6 0;
#X connect 17 12 5 0;
#X connect 17 13 4 0;
#X connect 17 14 3 0;
#X connect 17 15 2 0;
#X connect 17 16 1 0;
#X connect 18 0 19 0;
#X restore 674 308 pd send_datas;
#N canvas 626 176 193 206 seq_speed 0;
#X obj 28 28 inlet;
#X obj 28 101 127;
#X obj 133 102 & 63;
#X obj 80 102 >> 6;
#X obj 28 76 t banb float float;
#X obj 28 152 s OUT;
#X obj 28 54 i;
#X connect 0 0 6 0;
#X connect 1 0 5 0;
#X connect 2 0 5 0;
#X connect 3 0 5 0;
#X connect 4 0 1 0;
#X connect 4 1 3 0;
#X connect 4 2 2 0;
#X connect 6 0 4 0;
#X restore 675 378 pd seq_speed;
#X connect 0 0 61 0;
#X connect 1 0 61 0;
#X connect 2 0 55 0;
#X connect 2 0 61 0;
#X connect 19 0 20 0;
#X connect 20 0 21 0;
#X connect 20 0 28 0;
#X connect 21 0 20 1;
#X connect 22 0 20 1;
#X connect 23 0 24 0;
#X connect 24 0 27 0;
#X connect 24 1 22 0;
#X connect 25 0 62 0;
#X connect 27 0 19 0;
#X connect 29 0 30 0;
#X connect 30 0 31 0;
#X connect 30 0 36 0;
#X connect 31 0 30 1;
#X connect 32 0 30 1;
#X connect 33 0 34 0;
#X connect 34 0 35 0;
#X connect 34 1 32 0;
#X connect 35 0 29 0;
#X connect 54 0 56 0;
#X connect 56 0 63 0;
#X connect 60 0 61 0;
#X connect 61 0 38 0;
