#N canvas 480 300 648 431 10;
#N canvas 193 68 874 699 controls 0;
#X obj 113 233 bng 20 250 50 0 empty empty ERASE 25 15 0 15 -258113
-1 -1;
#X obj 113 141 bng 20 250 50 0 empty empty NEXT 25 15 0 15 -232576
-1 -1;
#X floatatom 184 145 5 0 0 1 FRAME_POS FRAME_POS -;
#X obj 113 72 tgl 20 0 empty empty PORT_ON_OFF 25 15 0 15 -228856 -1
-1 0 1;
#X obj 113 26 bng 20 250 50 0 empty empty CHECK_DEVICES 25 15 0 15
-203904 -1 -1;
#X obj 113 49 nbx 3 20 -1e+37 1e+37 0 0 empty empty PORT 60 15 0 15
-162280 -1 -1 0 256;
#X obj 113 164 bng 20 250 50 0 empty empty REW 25 15 0 15 -204786 -1
-1;
#X msg 27 46 devices;
#X obj 20 24 r OUT;
#X obj -5 113 print INPUT;
#X obj 116 347 hsl 128 15 2 2000 0 0 empty empty BPM 140 8 0 20 -258113
-1 -1 0 1;
#X floatatom 113 367 5 0 0 0 - - -;
#N canvas 702 297 302 354 beat_detection 0;
#X floatatom 70 223 5 0 0 0 - - -;
#X obj 87 192 bng 20 250 50 0 empty empty empty 0 -6 0 8 -262144 -258699
-1;
#X text 114 193 'on beat';
#X text 109 223 milliseconds;
#X obj 54 161 beat 4;
#X obj 54 124 makenote 60 60;
#X msg 54 98 60;
#X obj 27 41 fiddle~ 1024 1 20 3;
#X msg 6 98 reset;
#X obj 26 13 adc~;
#X obj 66 70 print BEAT;
#X obj 60 331 outlet;
#X obj 54 251 change;
#X obj 55 299 spigot;
#X obj 132 285 inlet;
#X connect 4 0 12 0;
#X connect 4 1 0 0;
#X connect 4 2 1 0;
#X connect 5 0 4 0;
#X connect 5 1 4 1;
#X connect 6 0 5 0;
#X connect 7 1 6 0;
#X connect 7 1 10 0;
#X connect 8 0 4 0;
#X connect 9 0 7 0;
#X connect 12 0 13 0;
#X connect 13 0 11 0;
#X connect 14 0 13 1;
#X restore 113 306 pd beat_detection;
#X obj -5 87 comport 4 38400;
#N canvas 1060 158 286 233 send_datas 0;
#X obj -13 16 inlet;
#X obj 194 66 s a-0;
#X obj 181 87 s a-1;
#X obj 168 108 s a-2;
#X obj 155 129 s a-3;
#X obj 142 66 s a-4;
#X obj 129 87 s a-5;
#X obj 116 108 s a-6;
#X obj 103 129 s a-7;
#X obj 90 66 s a-8;
#X obj 77 87 s a-9;
#X obj 64 108 s a-10;
#X obj 51 129 s a-11;
#X obj 38 66 s a-12;
#X obj 25 87 s a-13;
#X obj 12 108 s a-14;
#X obj -1 129 s a-15;
#X obj -13 41 t b b b b b b b b b b b b b b b b b;
#X obj -13 153 255;
#X obj -13 205 s OUT;
#X connect 0 0 17 0;
#X connect 17 0 18 0;
#X connect 17 1 16 0;
#X connect 17 2 15 0;
#X connect 17 3 14 0;
#X connect 17 4 13 0;
#X connect 17 5 12 0;
#X connect 17 6 11 0;
#X connect 17 7 10 0;
#X connect 17 8 9 0;
#X connect 17 9 8 0;
#X connect 17 10 7 0;
#X connect 17 11 6 0;
#X connect 17 12 5 0;
#X connect 17 13 4 0;
#X connect 17 14 3 0;
#X connect 17 15 2 0;
#X connect 17 16 1 0;
#X connect 18 0 19 0;
#X restore 114 274 pd send_datas;
#N canvas 624 205 193 206 seq_speed 0;
#X obj 28 28 inlet;
#X obj 28 101 127;
#X obj 133 102 & 63;
#X obj 80 102 >> 6;
#X obj 28 76 t banb float float;
#X obj 28 152 s OUT;
#X obj 28 54 i;
#X connect 0 0 6 0;
#X connect 1 0 5 0;
#X connect 2 0 5 0;
#X connect 3 0 5 0;
#X connect 4 0 1 0;
#X connect 4 1 3 0;
#X connect 4 2 2 0;
#X connect 6 0 4 0;
#X restore 113 388 pd seq_speed;
#N canvas 504 54 655 713 recorder 0;
#X obj 129 -33 list prepend;
#X obj 129 -9 trigger list;
#X obj 49 146 qlist;
#X msg 295 -92 next;
#X obj 49 85 list trim;
#X obj 419 167 + 1;
#X obj 379 199 s FRAME_POS;
#X obj 379 167 float;
#X msg 406 134 0;
#X obj 49 62 list append 1 2;
#X obj 268 -118 t b b;
#X msg 343 -37 rewind;
#X msg 537 53 clear;
#X msg 484 -67 write pattern.txt;
#X obj 473 -280 loadbang;
#X msg 473 -213 read pattern.txt;
#X msg 499 98 write pattern.txt;
#X obj 49 -9 list append;
#X obj 112 239 f;
#X obj 142 239 + 1;
#X msg 127 204 0;
#X obj 49 190 list-drip;
#X obj 49 214 trigger f b;
#X obj 112 265 % 16;
#X obj 49 167 trigger list bang;
#X obj 49 15 trigger bang list bang;
#X msg 49 39 add;
#X obj 133 320 f;
#X obj 163 320 + 1;
#X obj 133 294 sel 0;
#X obj 49 337 pack f f f;
#X msg 148 270 0;
#X msg 49 363 \; led_seq-\$3 \$2 \$1;
#X obj 193 -203 s a-0;
#X obj 180 -182 s a-1;
#X obj 167 -161 s a-2;
#X obj 154 -140 s a-3;
#X obj 141 -203 s a-4;
#X obj 128 -182 s a-5;
#X obj 115 -161 s a-6;
#X obj 102 -140 s a-7;
#X obj 89 -203 s a-8;
#X obj 76 -182 s a-9;
#X obj 63 -161 s a-10;
#X obj 50 -140 s a-11;
#X obj 37 -203 s a-12;
#X obj 24 -182 s a-13;
#X obj 11 -161 s a-14;
#X obj -2 -140 s a-15;
#X obj -14 -228 t b b b b b b b b b b b b b b b b b;
#X obj 233 -297 inlet;
#X obj 129 -102 r OUT_SAVE;
#X obj 462 16 trigger b b b;
#X obj -14 -93 trigger bang bang;
#X obj -14 -116 delay 100;
#X obj 233 -271 route REC NEXT REW ERASE SAVE;
#X obj 343 -62 trigger b b;
#X obj 473 -245 delay 2000;
#X connect 0 0 1 0;
#X connect 0 0 17 1;
#X connect 1 0 0 1;
#X connect 2 0 24 0;
#X connect 3 0 2 0;
#X connect 4 0 2 0;
#X connect 5 0 7 1;
#X connect 7 0 5 0;
#X connect 7 0 6 0;
#X connect 8 0 7 0;
#X connect 9 0 4 0;
#X connect 10 0 7 0;
#X connect 10 1 3 0;
#X connect 11 0 2 0;
#X connect 12 0 2 0;
#X connect 13 0 2 0;
#X connect 14 0 57 0;
#X connect 15 0 2 0;
#X connect 16 0 2 0;
#X connect 17 0 25 0;
#X connect 18 0 19 0;
#X connect 18 0 23 0;
#X connect 19 0 18 1;
#X connect 20 0 18 1;
#X connect 21 0 22 0;
#X connect 22 0 30 0;
#X connect 22 1 18 0;
#X connect 23 0 29 0;
#X connect 23 0 30 1;
#X connect 24 0 21 0;
#X connect 24 1 20 0;
#X connect 24 1 31 0;
#X connect 25 0 26 0;
#X connect 25 1 9 1;
#X connect 25 2 7 0;
#X connect 26 0 9 0;
#X connect 27 0 28 0;
#X connect 27 0 30 2;
#X connect 28 0 27 1;
#X connect 29 0 27 0;
#X connect 30 0 32 0;
#X connect 31 0 27 1;
#X connect 49 0 54 0;
#X connect 49 1 48 0;
#X connect 49 2 47 0;
#X connect 49 3 46 0;
#X connect 49 4 45 0;
#X connect 49 5 44 0;
#X connect 49 6 43 0;
#X connect 49 7 42 0;
#X connect 49 8 41 0;
#X connect 49 9 40 0;
#X connect 49 10 39 0;
#X connect 49 11 38 0;
#X connect 49 12 37 0;
#X connect 49 13 36 0;
#X connect 49 14 35 0;
#X connect 49 15 34 0;
#X connect 49 16 33 0;
#X connect 50 0 55 0;
#X connect 51 0 0 0;
#X connect 52 0 8 0;
#X connect 52 1 16 0;
#X connect 52 2 12 0;
#X connect 53 0 0 1;
#X connect 53 1 17 0;
#X connect 54 0 53 0;
#X connect 55 0 49 0;
#X connect 55 1 10 0;
#X connect 55 2 56 0;
#X connect 55 3 52 0;
#X connect 55 4 13 0;
#X connect 56 0 11 0;
#X connect 56 1 8 0;
#X connect 57 0 15 0;
#X restore -5 294 pd recorder;
#X obj 708 31 led_seq 1;
#X obj 770 50 led_seq 10;
#X obj 708 10 led_seq 0;
#X obj 770 151 led_seq 15;
#X obj 708 71 led_seq 3;
#X obj 708 51 led_seq 2;
#X obj 770 10 led_seq 8;
#X obj 770 30 led_seq 9;
#X obj 770 70 led_seq 11;
#X obj 770 90 led_seq 12;
#X obj 770 110 led_seq 13;
#X obj 770 130 led_seq 14;
#X obj 708 91 led_seq 4;
#X obj 708 111 led_seq 5;
#X obj 708 131 led_seq 6;
#X obj 708 151 led_seq 7;
#X msg 5 161 NEXT;
#X msg -5 138 REC;
#X msg 15 184 REW;
#X obj 300 256 vsl 20 150 0 4095 0 0 empty empty empty 0 -9 0 10 -4034
-1 -1 0 1;
#N canvas 0 22 450 278 (subpatch) 0;
#X array led_seq-0 16 float 5;
#A 0 0 0 1594 0 0 0 0 1209 0 2088 0 0 2418 0 2473 0;
#X coords 0 4095 15 0 100 50 2 0 0;
#X restore 300 10 graph;
#N canvas 0 22 450 278 (subpatch) 0;
#X array led_seq-1 16 float 5;
#A 0 0 0 1594 0 0 0 0 1209 0 2088 0 0 2418 0 2473 0;
#X coords 0 4095 15 0 100 50 2 0 0;
#X restore 400 10 graph;
#N canvas 0 22 450 278 (subpatch) 0;
#X array led_seq-2 16 float 5;
#A 0 0 0 1594 0 0 0 0 1209 0 2088 0 0 2418 0 2473 0;
#X coords 0 4095 15 0 100 50 2 0 0;
#X restore 500 10 graph;
#N canvas 0 22 450 278 (subpatch) 0;
#X array led_seq-3 16 float 5;
#A 0 0 0 1594 0 0 0 0 1209 0 2088 0 0 2418 0 2473 0;
#X coords 0 4095 15 0 100 50 2 0 0;
#X restore 600 10 graph;
#X obj 286 458 pack f f f f f f f f f f f f f f f f f;
#X obj 300 229 hradio 20 1 0 16 empty empty empty 0 -8 0 10 -257985
-1 -1 0;
#X obj 320 256 vsl 20 150 0 4095 0 0 empty empty empty 0 -9 0 10 -4034
-1 -1 0 1;
#X obj 340 256 vsl 20 150 0 4095 0 0 empty empty empty 0 -9 0 10 -4034
-1 -1 5800 1;
#X obj 360 256 vsl 20 150 0 4095 0 0 empty empty empty 0 -9 0 10 -4034
-1 -1 0 1;
#X obj 380 256 vsl 20 150 0 4095 0 0 empty empty empty 0 -9 0 10 -4034
-1 -1 0 1;
#X obj 400 256 vsl 20 150 0 4095 0 0 empty empty empty 0 -9 0 10 -4034
-1 -1 0 1;
#X obj 420 256 vsl 20 150 0 4095 0 0 empty empty empty 0 -9 0 10 -4034
-1 -1 4400 1;
#X obj 440 256 vsl 20 150 0 4095 0 0 empty empty empty 0 -9 0 10 -4034
-1 -1 0 1;
#X obj 460 256 vsl 20 150 0 4095 0 0 empty empty empty 0 -9 0 10 -4034
-1 -1 7600 1;
#X obj 480 256 vsl 20 150 0 4095 0 0 empty empty empty 0 -9 0 10 -4034
-1 -1 0 1;
#X obj 500 256 vsl 20 150 0 4095 0 0 empty empty empty 0 -9 0 10 -4034
-1 -1 0 1;
#X obj 520 256 vsl 20 150 0 4095 0 0 empty empty empty 0 -9 0 10 -4034
-1 -1 8800 1;
#X obj 540 256 vsl 20 150 0 4095 0 0 empty empty empty 0 -9 0 10 -4034
-1 -1 0 1;
#X obj 560 256 vsl 20 150 0 4095 0 0 empty empty empty 0 -9 0 10 -4034
-1 -1 9000 1;
#X obj 580 256 vsl 20 150 0 4095 0 0 empty empty empty 0 -9 0 10 -4034
-1 -1 0 1;
#X obj 600 256 vsl 20 150 0 4095 0 0 empty empty empty 0 -9 0 10 -4034
-1 -1 0 1;
#X obj 300 418 i;
#X obj 320 418 i;
#X obj 340 418 i;
#X obj 360 418 i;
#X obj 380 418 i;
#X obj 400 418 i;
#X obj 420 418 i;
#X obj 440 418 i;
#X obj 460 418 i;
#X obj 480 418 i;
#X obj 500 418 i;
#X obj 520 418 i;
#X obj 540 418 i;
#X obj 560 418 i;
#X obj 580 418 i;
#X obj 600 418 i;
#N canvas 0 22 450 278 (subpatch) 0;
#X array led_seq-4 16 float 5;
#A 0 0 0 1594 0 0 0 0 1209 0 2088 0 0 2418 0 2473 0;
#X coords 0 4095 15 0 100 50 2 0 0;
#X restore 300 60 graph;
#N canvas 0 22 450 278 (subpatch) 0;
#X array led_seq-5 16 float 5;
#A 0 0 0 1594 0 0 0 0 1209 0 2088 0 0 2418 0 2473 0;
#X coords 0 4095 15 0 100 50 2 0 0;
#X restore 400 60 graph;
#N canvas 0 22 450 278 (subpatch) 0;
#X array led_seq-6 16 float 5;
#A 0 0 0 1594 0 0 0 0 1209 0 2088 0 0 2418 0 2473 0;
#X coords 0 4095 15 0 100 50 2 0 0;
#X restore 500 60 graph;
#N canvas 0 22 450 278 (subpatch) 0;
#X array led_seq-7 16 float 5;
#A 0 0 0 1594 0 0 0 0 1209 0 2088 0 0 2418 0 2473 0;
#X coords 0 4095 15 0 100 50 2 0 0;
#X restore 600 60 graph;
#N canvas 0 22 450 278 (subpatch) 0;
#X array led_seq-8 16 float 5;
#A 0 0 0 1594 0 0 0 0 1209 0 2088 0 0 2418 0 2473 0;
#X coords 0 4095 15 0 100 50 2 0 0;
#X restore 300 111 graph;
#N canvas 0 22 450 278 (subpatch) 0;
#X array led_seq-9 16 float 5;
#A 0 0 0 1594 0 0 0 0 1209 0 2088 0 0 2418 0 2473 0;
#X coords 0 4095 15 0 100 50 2 0 0;
#X restore 400 111 graph;
#N canvas 0 22 450 278 (subpatch) 0;
#X array led_seq-10 16 float 5;
#A 0 0 0 1594 0 0 0 0 1209 0 2088 0 0 2418 0 2473 0;
#X coords 0 4095 15 0 100 50 2 0 0;
#X restore 500 111 graph;
#N canvas 0 22 450 278 (subpatch) 0;
#X array led_seq-11 16 float 5;
#A 0 0 0 1594 0 0 0 0 1209 0 2088 0 0 2418 0 2473 0;
#X coords 0 4095 15 0 100 50 2 0 0;
#X restore 600 111 graph;
#N canvas 0 22 450 278 (subpatch) 0;
#X array led_seq-12 16 float 5;
#A 0 0 0 1594 0 0 0 0 1209 0 2088 0 0 2418 0 2473 0;
#X coords 0 4095 15 0 100 50 2 0 0;
#X restore 300 161 graph;
#N canvas 1 54 450 278 (subpatch) 0;
#X array led_seq-13 16 float 5;
#A 0 0 0 1594 0 0 0 0 1209 0 2088 0 0 2418 0 2473 0;
#X coords 0 4095 15 0 100 50 2 0 0;
#X restore 400 161 graph;
#N canvas 0 22 450 278 (subpatch) 0;
#X array led_seq-14 16 float 5;
#A 0 0 0 1594 0 0 0 0 1209 0 2088 0 0 2418 0 2473 0;
#X coords 0 4095 15 0 100 50 2 0 0;
#X restore 500 161 graph;
#N canvas 1 54 450 278 (subpatch) 0;
#X array led_seq-15 16 float 5;
#A 0 0 0 1594 0 0 0 0 1209 0 2088 0 0 2418 0 2473 0;
#X coords 0 4095 15 0 100 50 2 0 0;
#X restore 600 161 graph;
#X msg 286 482 \; led_seq-\$1 0 \$2 \$3 \$4 \$5 \$6 \$7 \$7 \$8 \$9
\$10 \$11 \$12 \$13 \$14 \$15 \$16 \, bang;
#X msg 30 253 ERASE;
#X obj 113 118 bng 20 250 50 0 empty empty REC 25 15 0 15 -4034 -1
-1;
#X obj 113 210 bng 20 250 50 0 empty empty SEND 25 15 0 15 -257985
-1 -1;
#X obj 113 95 tgl 20 0 empty empty BEAT_DETECT 25 15 0 15 -203904 -1
-1 0 1;
#X msg -5 -8 open 0;
#X msg 113 -25 set open \$1;
#X obj -5 -56 sel 1 0;
#X msg 14 -33 close;
#X obj 113 187 bng 20 250 50 0 empty empty SAVE 25 15 0 15 -260097
-1 -1;
#X msg 23 207 SAVE;
#X msg 113 -47 0;
#X obj 113 -69 loadbang;
#X text 304 211 1;
#X text 324 211 2;
#X text 345 211 3;
#X text 365 211 4;
#X text 384 211 5;
#X text 404 211 6;
#X text 425 211 7;
#X text 464 211 9;
#X text 482 211 10;
#X text 503 211 11;
#X text 523 211 12;
#X text 542 211 13;
#X text 562 211 14;
#X text 583 211 15;
#X text 604 211 16;
#X text 444 211 8;
#X msg 51 423 \; pd dsp \$1 \;;
#X obj 24 399 t f f;
#X obj 277 229 bng 20 250 50 0 empty empty empty 25 15 0 15 -258113
-1 -1;
#X obj 169 497 until;
#X obj 169 548 print i;
#X obj 169 523 f;
#X obj 199 523 + 1;
#X obj 169 451 t b b;
#X msg 196 474 0;
#X msg 169 474 16;
#X connect 0 0 87 0;
#X connect 1 0 33 0;
#X connect 3 0 93 0;
#X connect 4 0 7 0;
#X connect 5 0 92 0;
#X connect 6 0 35 0;
#X connect 7 0 13 0;
#X connect 8 0 13 0;
#X connect 10 0 11 0;
#X connect 11 0 15 0;
#X connect 12 0 10 0;
#X connect 13 0 9 0;
#X connect 33 0 16 0;
#X connect 34 0 16 0;
#X connect 35 0 16 0;
#X connect 36 0 58 0;
#X connect 41 0 86 0;
#X connect 42 0 41 0;
#X connect 43 0 59 0;
#X connect 44 0 60 0;
#X connect 45 0 61 0;
#X connect 46 0 62 0;
#X connect 47 0 63 0;
#X connect 48 0 64 0;
#X connect 49 0 65 0;
#X connect 50 0 66 0;
#X connect 51 0 67 0;
#X connect 52 0 68 0;
#X connect 53 0 69 0;
#X connect 54 0 70 0;
#X connect 55 0 71 0;
#X connect 56 0 72 0;
#X connect 57 0 73 0;
#X connect 58 0 41 1;
#X connect 59 0 41 2;
#X connect 60 0 41 3;
#X connect 61 0 41 4;
#X connect 62 0 41 5;
#X connect 63 0 41 6;
#X connect 64 0 41 7;
#X connect 65 0 41 8;
#X connect 66 0 41 9;
#X connect 67 0 41 10;
#X connect 68 0 41 11;
#X connect 69 0 41 12;
#X connect 70 0 41 13;
#X connect 71 0 41 14;
#X connect 72 0 41 15;
#X connect 73 0 41 16;
#X connect 87 0 16 0;
#X connect 88 0 34 0;
#X connect 89 0 14 0;
#X connect 90 0 116 0;
#X connect 91 0 13 0;
#X connect 92 0 91 0;
#X connect 93 0 91 0;
#X connect 93 1 94 0;
#X connect 94 0 13 0;
#X connect 95 0 96 0;
#X connect 96 0 16 0;
#X connect 97 0 92 0;
#X connect 98 0 97 0;
#X connect 116 0 12 0;
#X connect 116 1 115 0;
#X connect 117 0 122 0;
#X connect 118 0 120 0;
#X connect 120 0 119 0;
#X connect 120 0 121 0;
#X connect 120 0 41 0;
#X connect 121 0 120 1;
#X connect 122 0 124 0;
#X connect 122 1 123 0;
#X connect 123 0 120 1;
#X connect 124 0 118 0;
#X coords 0 -1 1 1 600 400 2 100 10;
#X restore -355 -2860 pd controls;
