#N canvas 510 22 352 390 10;
#X obj 22 -111 f;
#X obj 22 -62 i;
#X obj 22 -37 limit 0 4095 0;
#X obj 53 -111 + 1;
#X obj 22 -87 tabread led_seq-\$1;
#X obj 188 -201 MAPPING/curve_exp;
#X obj 188 -222 / 4095;
#X obj 191 -242 hsl 128 15 0 4095 0 0 empty empty empty -2 -8 0 10
-262144 -1 -1 0 1;
#X obj 191 -137 hsl 128 15 0 4095 0 0 empty empty empty -2 -8 0 10
-262144 -1 -1 0 1;
#X obj 188 -180 * 4095;
#X obj 188 -159 i;
#X obj 22 39 pack float float;
#X obj 115 15 & 63;
#X obj 22 -11 trigger float float;
#X obj 22 15 >> 6;
#X obj 22 -159 until;
#X msg 85 -181 0;
#X obj 22 -203 t bang bang;
#X obj 22 89 s OUT;
#X obj 22 -253 r a-\$1;
#X msg 22 -181 16;
#X connect 0 0 3 0;
#X connect 0 0 4 0;
#X connect 1 0 2 0;
#X connect 2 0 13 0;
#X connect 3 0 0 1;
#X connect 4 0 1 0;
#X connect 5 0 9 0;
#X connect 6 0 5 0;
#X connect 7 0 6 0;
#X connect 9 0 10 0;
#X connect 10 0 8 0;
#X connect 11 0 18 0;
#X connect 12 0 11 1;
#X connect 13 0 14 0;
#X connect 13 1 12 0;
#X connect 14 0 11 0;
#X connect 15 0 0 0;
#X connect 16 0 0 1;
#X connect 17 0 20 0;
#X connect 17 1 16 0;
#X connect 19 0 17 0;
#X connect 20 0 15 0;
#X coords 0 390 1 389 300 80 0;
